<svg width="1920" height="1080" viewBox="0 0 1920 1080" fill="none" xmlns="http://www.w3.org/2000/svg">
<g clip-path="url(#clip0_589_3070)">
<rect width="1920" height="1080" fill="#EFF2F6"/>
<g filter="url(#filter0_d_589_3070)">
<path d="M1865 -64H80C24.7715 -64 -20 -19.2284 -20 36V160.37C-20 202.476 6.37536 240.072 45.9684 254.401L1355.57 728.369C1390.6 741.049 1429.78 733.2 1457.23 708.003L1932.63 271.556C1953.26 252.617 1965 225.896 1965 197.891V36C1965 -19.2285 1920.23 -64 1865 -64Z" fill="url(#paint0_linear_589_3070)"/>
</g>
<path d="M1341.86 1006.72L1908.25 481.882C1973.03 421.858 2078.12 469.126 2076.2 557.416L2064.5 1092.71C2063.29 1147.93 2017.56 1191.71 1962.34 1190.5L1407.01 1178.37C1352.33 1177.17 1308.97 1131.88 1310.16 1077.2C1310.75 1050.38 1322.19 1024.95 1341.86 1006.72Z" fill="url(#paint1_linear_589_3070)"/>
</g>
<defs>
<filter id="filter0_d_589_3070" x="-48.7" y="-88.7" width="2042.4" height="855.74" filterUnits="userSpaceOnUse" color-interpolation-filters="sRGB">
<feFlood flood-opacity="0" result="BackgroundImageFix"/>
<feColorMatrix in="SourceAlpha" type="matrix" values="0 0 0 0 0 0 0 0 0 0 0 0 0 0 0 0 0 0 127 0" result="hardAlpha"/>
<feOffset dy="4"/>
<feGaussianBlur stdDeviation="14.35"/>
<feComposite in2="hardAlpha" operator="out"/>
<feColorMatrix type="matrix" values="0 0 0 0 0.937255 0 0 0 0 0.94902 0 0 0 0 0.964706 0 0 0 1 0"/>
<feBlend mode="normal" in2="BackgroundImageFix" result="effect1_dropShadow_589_3070"/>
<feBlend mode="normal" in="SourceGraphic" in2="effect1_dropShadow_589_3070" result="shape"/>
</filter>
<linearGradient id="paint0_linear_589_3070" x1="1072" y1="86.0001" x2="123.522" y2="290.827" gradientUnits="userSpaceOnUse">
<stop stop-color="#FAFBFD"/>
<stop offset="1" stop-color="#EFF2F6"/>
</linearGradient>
<linearGradient id="paint1_linear_589_3070" x1="1560" y1="1193" x2="1890.5" y2="492" gradientUnits="userSpaceOnUse">
<stop stop-color="#FAFBFD"/>
<stop offset="1" stop-color="#EFF2F6"/>
</linearGradient>
<clipPath id="clip0_589_3070">
<rect width="1920" height="1080" fill="white"/>
</clipPath>
</defs>
</svg>
